<?xml version="1.0" standalone="no"?>
<!DOCTYPE svg PUBLIC "-//W3C//DTD SVG 20010904//EN"
 "http://www.w3.org/TR/2001/REC-SVG-20010904/DTD/svg10.dtd">
<svg version="1.0" xmlns="http://www.w3.org/2000/svg"
 width="1280.000000pt" height="815.000000pt" viewBox="0 0 1280.000000 815.000000"
 preserveAspectRatio="xMidYMid meet">
<metadata>
Created by potrace 1.15, written by Peter Selinger 2001-2017
</metadata>
<g transform="translate(0.000000,815.000000) scale(0.100000,-0.100000)"
fill="#ED8936" stroke="none" fill-opacity="0.3">
<path d="M9220 8141 c-151 -49 -238 -180 -241 -362 -1 -73 4 -102 34 -179 66
-174 201 -287 356 -297 129 -9 234 57 294 186 39 83 49 215 22 307 -57 197
-212 340 -378 350 -34 2 -73 0 -87 -5z"/>
<path d="M8965 7236 c-95 -24 -136 -54 -350 -265 -216 -212 -303 -280 -450
-354 -173 -86 -475 -164 -775 -202 -129 -16 -188 -12 -400 25 -137 24 -127 23
-133 6 -10 -25 435 -166 613 -195 209 -33 473 -37 653 -10 275 41 530 161 806
379 263 207 364 404 269 525 -11 15 -43 44 -70 66 -55 43 -77 46 -163 25z"/>
<path d="M9465 7191 c-69 -41 -99 -133 -98 -291 3 -385 251 -868 481 -936 65
-19 108 -8 150 41 49 55 66 124 66 255 0 236 -89 510 -234 725 -56 82 -149
174 -208 204 -51 26 -117 27 -157 2z"/>
<path d="M20 6004 c0 -14 668 -676 756 -750 167 -139 192 -173 259 -364 120
-339 191 -437 434 -597 137 -91 159 -109 361 -317 397 -409 439 -448 515 -488
157 -81 326 -131 710 -213 410 -86 580 -138 754 -231 104 -55 170 -102 370
-262 227 -183 403 -292 470 -292 57 0 178 -31 366 -95 271 -91 295 -95 850
-141 440 -36 701 -112 942 -273 120 -80 215 -162 424 -361 310 -294 425 -382
632 -480 217 -103 344 -134 682 -170 610 -63 1524 -188 1955 -266 340 -62
1068 -221 1145 -250 33 -12 15 1 -84 60 -250 152 -514 260 -815 336 -155 39
-156 40 -46 55 196 27 443 141 626 289 374 301 629 790 694 1331 16 127 13
411 -4 536 -83 588 -382 1059 -814 1282 -181 94 -325 127 -551 127 -266 0
-474 -67 -722 -231 -141 -94 -334 -291 -436 -446 -203 -308 -314 -615 -353
-981 -16 -142 -8 -442 15 -567 102 -564 382 -994 790 -1210 69 -36 95 -53 64
-43 -41 15 -1200 163 -1511 193 -226 22 -383 72 -573 182 -136 78 -255 175
-482 392 -120 115 -251 236 -291 270 -202 169 -425 280 -702 350 -67 17 -132
31 -144 32 -11 0 24 15 79 33 236 76 400 180 600 380 160 160 241 273 341 476
138 279 201 514 225 844 30 405 -76 857 -276 1177 -106 168 -263 337 -408 437
-104 72 -284 157 -387 182 -108 28 -369 38 -492 21 -111 -16 -272 -71 -387
-131 -489 -258 -826 -781 -933 -1445 -19 -123 -16 -506 6 -625 40 -221 86
-368 167 -539 146 -307 353 -536 613 -678 l81 -44 -80 6 c-211 18 -492 84
-656 154 -139 60 -226 117 -441 290 -406 324 -509 369 -1195 515 -377 81 -553
135 -660 205 -36 23 -176 159 -366 354 -298 306 -314 320 -458 417 -228 155
-269 211 -380 512 l-59 163 -78 80 c-43 44 -125 131 -182 193 -116 127 -208
194 -484 350 -83 47 -224 127 -313 178 -90 50 -163 90 -163 88z m6405 -244
c44 -11 125 -42 181 -69 398 -195 676 -625 755 -1171 21 -143 16 -443 -10
-594 -68 -393 -234 -729 -481 -976 -207 -207 -416 -320 -674 -365 -112 -19
-190 -19 -300 0 -423 74 -752 366 -940 836 -251 629 -122 1416 318 1931 189
222 480 394 723 427 108 16 335 5 428 -19z m4479 -1500 c241 -62 497 -254 657
-493 197 -295 291 -621 291 -1012 0 -313 -55 -563 -182 -839 -177 -386 -473
-670 -818 -787 -265 -90 -514 -72 -776 54 -198 96 -341 223 -477 426 -125 185
-212 399 -259 636 -32 157 -39 467 -15 632 44 307 146 572 319 833 197 296
537 528 837 570 103 14 332 4 423 -20z"/>
<path d="M9856 5869 c-172 -41 -370 -269 -545 -629 -109 -224 -345 -740 -508
-1110 -205 -465 -313 -720 -731 -1720 -150 -361 -228 -570 -211 -570 4 0 22
12 39 27 82 68 516 684 911 1291 90 138 249 381 353 540 223 339 315 486 609
967 256 420 314 526 358 655 30 86 33 106 33 215 1 116 0 123 -31 185 -18 36
-51 86 -74 113 -40 47 -41 47 -102 46 -34 -1 -79 -5 -101 -10z"/>
<path d="M8635 5724 c-99 -15 -309 -62 -440 -99 -301 -87 -408 -139 -526 -255
-87 -86 -117 -151 -132 -281 -21 -199 25 -361 198 -699 233 -454 350 -698 394
-824 51 -145 70 -167 72 -84 l1 53 10 -42 c5 -24 14 -43 20 -43 16 0 -1 240
-36 505 -8 61 -27 234 -41 387 -14 152 -34 339 -45 415 -11 76 -20 172 -20
214 l0 76 205 12 c333 19 534 49 698 102 157 51 229 104 272 200 23 53 27 71
22 124 -2 36 -15 86 -30 118 -28 62 -19 58 -195 98 -84 20 -351 34 -427 23z"/>
<path d="M11691 434 c6 -7 29 -22 52 -33 65 -31 1030 -392 1035 -387 8 9 -135
96 -225 137 -120 56 -313 129 -458 174 -244 76 -415 122 -404 109z"/>
</g>
</svg>
