<?xml version="1.0" standalone="no"?>
<!DOCTYPE svg PUBLIC "-//W3C//DTD SVG 20010904//EN"
 "http://www.w3.org/TR/2001/REC-SVG-20010904/DTD/svg10.dtd">
<svg version="1.0" xmlns="http://www.w3.org/2000/svg"
 width="1073.000000pt" height="1075.000000pt" viewBox="0 0 1073.000000 1075.000000"
 preserveAspectRatio="xMidYMid meet">

<g transform="translate(0.000000,1075.000000) scale(0.100000,-0.100000)"
fill="rgba(0,0,0,0.2)" stroke="none">
<path d="M3120 10215 c-7 -8 -27 -17 -45 -21 -18 -3 -46 -19 -62 -36 -37 -39
-70 -56 -173 -88 l-85 -26 -35 -67 c-20 -37 -41 -72 -48 -79 -7 -7 -12 -38
-12 -71 0 -55 3 -63 42 -109 24 -30 59 -58 84 -69 61 -26 70 -48 49 -121 -10
-32 -24 -63 -32 -69 -17 -15 -17 -73 1 -88 8 -7 32 -42 54 -79 30 -51 46 -97
67 -189 16 -68 26 -124 24 -126 -2 -2 -80 -23 -174 -47 -198 -50 -300 -97
-391 -176 -33 -29 -73 -58 -90 -65 -51 -21 -138 -11 -226 27 -67 28 -92 34
-153 34 l-73 0 -99 -84 c-95 -81 -166 -125 -228 -141 -16 -4 -110 -7 -207 -6
-130 2 -206 -2 -281 -14 -104 -17 -105 -17 -172 5 -87 29 -114 58 -222 245
-63 107 -108 171 -159 225 -39 42 -73 82 -76 90 -4 11 -8 12 -18 4 -17 -17 -3
-53 26 -66 22 -10 24 -16 19 -50 -6 -36 -5 -38 19 -38 19 0 34 -11 56 -42 16
-22 30 -47 30 -55 0 -8 -20 -35 -44 -61 -42 -45 -126 -179 -126 -202 0 -5 5
-10 11 -10 6 0 33 -17 60 -39 71 -56 137 -68 278 -49 59 8 117 11 127 7 33
-13 200 -10 281 6 93 18 167 19 242 4 49 -10 69 -9 150 10 79 18 104 29 165
72 39 28 91 71 116 94 81 77 131 82 260 25 82 -36 99 -40 174 -40 l82 0 55 45
c30 24 68 55 85 69 58 47 194 101 311 125 61 12 145 33 185 47 40 14 128 36
195 49 67 13 199 49 295 80 164 53 176 58 230 108 51 48 61 63 112 190 31 75
66 153 78 173 l21 36 28 -29 c15 -15 62 -102 104 -193 65 -140 85 -174 133
-222 31 -32 60 -58 65 -58 5 0 33 -21 63 -47 l55 -46 -21 -22 c-11 -12 -24
-40 -27 -61 -4 -22 -20 -55 -37 -76 -22 -25 -36 -56 -45 -99 -11 -56 -20 -71
-74 -129 -75 -79 -88 -117 -95 -280 -5 -114 -5 -115 -43 -167 -22 -28 -48 -76
-60 -105 -19 -48 -20 -59 -9 -119 12 -60 11 -70 -10 -128 -18 -49 -33 -70 -69
-99 -84 -66 -130 -115 -137 -145 -3 -16 -22 -47 -41 -68 -31 -34 -41 -39 -78
-39 -56 0 -92 -30 -145 -120 -34 -57 -40 -77 -40 -124 0 -52 2 -56 42 -88 23
-18 73 -63 112 -99 61 -58 79 -69 129 -80 67 -14 97 -44 97 -94 0 -37 -21 -51
-89 -58 -35 -4 -53 -15 -90 -50 -35 -35 -60 -49 -102 -60 -106 -27 -219 -124
-219 -188 0 -16 -15 -39 -40 -64 -28 -27 -42 -51 -46 -77 -5 -31 -12 -39 -38
-48 -35 -11 -79 -53 -118 -113 -33 -49 -119 -123 -154 -131 -15 -4 -48 -25
-73 -48 -25 -22 -56 -44 -68 -49 -26 -10 -30 -27 -8 -35 9 -4 37 13 72 44 32
27 74 54 93 61 40 12 170 125 170 146 0 20 59 85 77 85 29 0 72 40 78 74 5 24
12 32 27 32 12 -1 23 5 25 12 3 6 -3 12 -12 12 -13 0 -10 8 14 35 17 20 31 45
31 56 0 22 30 79 41 79 3 0 27 16 52 35 26 20 68 40 96 47 37 8 66 25 111 65
50 43 68 53 98 53 20 1 50 7 67 14 20 8 43 10 70 5 75 -15 107 -11 137 18 23
22 30 24 43 13 10 -8 31 -11 61 -7 56 6 94 38 94 80 0 41 33 90 89 131 44 33
54 35 147 42 l99 6 74 -42 c76 -43 91 -45 174 -25 34 9 53 -6 104 -84 44 -68
86 -115 176 -193 61 -52 73 -59 105 -56 35 3 37 5 42 43 3 22 20 60 36 85 17
25 34 54 38 66 3 11 24 38 46 59 l40 39 55 -23 c49 -20 68 -22 186 -20 l131 3
35 -42 c34 -41 36 -42 94 -42 33 0 68 5 78 12 15 9 25 7 52 -9 30 -18 44 -20
129 -14 78 5 105 3 150 -12 90 -30 186 -8 295 68 l60 41 75 -10 c79 -12 76
-10 72 -65 -1 -11 -20 -41 -42 -66 -32 -37 -40 -54 -40 -85 0 -37 3 -41 61
-76 51 -30 73 -38 130 -42 66 -4 71 -6 100 -43 25 -32 37 -39 65 -39 52 0 68
-13 109 -85 38 -69 39 -89 5 -120 -46 -41 -5 -115 64 -115 61 0 62 -10 10
-106 -26 -49 -81 -143 -122 -208 -41 -66 -79 -133 -85 -150 -6 -17 -31 -62
-55 -101 -24 -38 -49 -83 -55 -100 -5 -16 -18 -39 -28 -50 -10 -11 -36 -60
-59 -109 -22 -49 -56 -110 -75 -137 -20 -26 -41 -62 -47 -81 -6 -18 -21 -45
-34 -60 -12 -15 -25 -41 -29 -57 -3 -16 -15 -37 -25 -46 -11 -10 -25 -34 -31
-53 -7 -20 -32 -68 -57 -106 -24 -39 -49 -84 -55 -101 -6 -16 -20 -42 -33 -57
-12 -15 -25 -41 -29 -57 -3 -16 -13 -35 -21 -42 -7 -6 -54 -88 -104 -183 -118
-225 -139 -247 -369 -378 -97 -56 -199 -118 -228 -140 -29 -21 -57 -38 -63
-38 -17 0 -100 -81 -129 -125 -36 -56 -61 -140 -61 -205 0 -35 19 -123 50
-240 27 -102 50 -197 50 -212 0 -14 -34 -106 -76 -204 -68 -159 -77 -187 -85
-268 -8 -85 -26 -166 -41 -181 -12 -12 -160 24 -174 43 -10 14 -15 15 -25 5
-8 -8 -42 -13 -89 -13 -88 0 -80 -7 -217 165 -72 90 -81 106 -91 163 -10 56
-19 72 -91 160 -76 95 -80 102 -107 203 -22 85 -33 111 -62 141 -42 44 -107
73 -185 83 -55 6 -64 12 -140 78 -59 53 -113 88 -201 133 -136 68 -141 76
-112 161 9 26 16 68 16 95 0 45 4 52 48 95 l47 46 -2 68 c-1 48 2 71 13 80 8
6 14 22 14 34 0 12 7 40 16 60 12 30 14 56 9 120 l-7 81 95 77 c157 126 169
156 114 288 -29 69 -36 100 -38 167 l-3 83 32 25 c29 23 32 30 32 83 0 57 -1
58 -51 101 -46 39 -50 45 -45 75 5 22 2 36 -9 45 -24 20 -18 50 21 97 26 32
38 57 42 89 l5 44 -71 0 c-39 0 -94 5 -123 11 -53 12 -52 12 -137 -29 -27 -13
-62 -15 -177 -13 -157 3 -159 2 -230 -59 -25 -22 -54 -40 -64 -40 -26 0 -45
-26 -76 -100 -15 -36 -35 -74 -44 -85 -10 -11 -30 -62 -45 -114 -33 -111 -100
-219 -233 -373 -100 -117 -152 -223 -160 -328 -3 -45 -16 -92 -44 -156 -41
-95 -46 -135 -28 -194 6 -19 14 -103 18 -187 4 -98 10 -156 18 -164 10 -10 30
-5 95 24 110 48 148 57 239 57 51 0 95 7 135 21 116 41 192 19 294 -86 52 -53
87 -78 171 -120 58 -29 112 -61 120 -71 7 -9 59 -38 114 -64 83 -39 111 -58
163 -112 66 -69 105 -88 180 -88 54 0 122 -31 155 -70 29 -34 32 -42 46 -136
7 -45 19 -75 45 -111 l35 -49 -53 -26 c-48 -24 -59 -35 -95 -102 -28 -50 -61
-91 -100 -125 -34 -30 -62 -63 -66 -79 -10 -42 -33 -72 -57 -72 -12 0 -42 -21
-71 -50 -41 -41 -63 -54 -120 -71 -89 -26 -126 -20 -182 32 -62 57 -96 55
-183 -15 -48 -38 -87 -60 -139 -77 -54 -17 -83 -33 -110 -61 l-38 -39 2 -108
2 -108 -37 -36 -37 -36 -230 -31 c-126 -17 -245 -33 -263 -37 -21 -3 -55 -25
-91 -59 -63 -58 -83 -102 -81 -182 1 -26 -1 -57 -5 -68 -6 -18 7 -31 80 -84
67 -48 91 -72 105 -104 9 -23 24 -47 33 -54 9 -8 22 -39 29 -70 10 -46 21 -66
60 -105 26 -26 55 -61 63 -77 12 -23 22 -30 45 -30 25 0 32 6 44 35 17 40 38
45 53 12 6 -12 44 -52 85 -87 66 -57 76 -71 87 -115 14 -60 44 -95 83 -95 16
0 60 16 98 35 77 39 135 45 175 19 13 -8 46 -37 73 -65 39 -39 56 -49 83 -49
41 -1 47 -6 123 -92 54 -63 62 -68 98 -68 34 0 49 8 103 55 48 43 70 55 95 55
28 0 47 14 125 90 115 113 120 122 108 192 -7 39 -6 62 3 83 8 18 13 74 14
137 l0 108 36 40 c28 31 44 40 69 40 36 0 74 25 171 113 37 33 73 57 86 58 13
0 54 3 91 8 61 6 72 5 105 -16 58 -35 113 -31 160 12 66 59 134 45 217 -44 54
-58 87 -65 137 -30 16 12 31 20 32 18 21 -26 199 -300 226 -349 29 -53 40 -65
60 -65 14 -1 68 -27 120 -60 52 -32 133 -76 179 -98 115 -53 163 -106 172
-189 5 -51 11 -65 45 -99 39 -40 40 -40 109 -39 95 3 95 3 95 -21 0 -18 5 -20
40 -18 28 2 48 -3 69 -19 33 -24 56 -28 66 -11 5 7 12 5 23 -5 18 -15 106 -56
123 -56 15 0 98 136 144 236 26 57 50 94 61 97 62 19 162 30 252 28 87 -2 119
2 195 25 77 23 108 27 192 25 92 -2 102 -4 127 -28 19 -18 28 -40 33 -75 8
-57 55 -119 109 -143 17 -8 58 -33 90 -57 l59 -43 141 -1 c157 0 176 -5 313
-83 40 -23 77 -41 82 -41 11 0 18 19 26 82 11 77 -7 112 -111 214 -72 70 -94
98 -94 118 0 16 -14 42 -37 66 -53 60 -68 65 -115 44 l-39 -17 -68 67 c-40 40
-71 80 -74 95 -4 17 -31 49 -71 85 -51 44 -66 64 -66 85 0 20 -20 46 -83 109
-49 48 -91 82 -103 82 -21 0 -93 69 -113 108 -7 12 -17 22 -24 22 -7 0 -27 15
-44 33 -25 25 -33 46 -41 99 -9 55 -19 79 -56 131 -32 45 -43 69 -39 85 3 12
11 22 17 22 18 0 62 51 73 85 11 34 -12 32 226 19 146 -8 137 -14 113 91 -8
33 -16 105 -18 161 l-3 101 43 56 c23 32 48 57 54 57 5 0 26 -13 45 -30 18
-16 37 -30 42 -30 19 0 42 41 50 89 5 29 13 57 20 64 25 25 11 46 -46 74 -33
16 -59 36 -61 46 -6 31 219 270 245 260 22 -9 83 56 83 88 0 22 17 42 89 103
49 42 96 76 103 76 8 0 25 12 39 26 26 28 19 27 183 12 28 -3 29 -1 52 82 13
47 24 104 24 127 0 38 -4 44 -49 77 -70 52 -110 48 -179 -18 l-33 -31 -27 34
c-15 18 -52 57 -81 87 l-55 53 18 78 c10 43 26 92 36 108 9 17 25 60 35 97 18
67 18 68 -4 124 -11 31 -21 69 -21 86 0 17 -9 45 -20 63 -27 44 -60 141 -60
177 0 16 -11 48 -24 71 -28 48 -86 237 -86 279 0 15 9 45 20 65 13 25 20 56
20 93 -1 46 -6 61 -30 90 -37 43 -37 50 0 50 26 0 30 4 30 28 0 37 -28 122
-48 145 -8 9 -32 22 -54 27 -43 12 -68 49 -68 100 0 32 -1 33 -67 50 -38 9
-43 14 -43 39 0 37 -83 111 -125 111 -25 0 -85 50 -85 70 0 20 19 30 56 30 42
0 74 28 74 64 0 22 14 51 44 93 43 58 46 60 108 72 34 7 71 14 81 17 21 6 22
32 2 58 -31 42 -12 86 36 86 27 0 59 22 59 41 0 17 18 9 60 -26 34 -29 50 -35
87 -35 62 0 97 28 138 111 26 50 60 94 125 159 87 86 90 91 90 134 0 32 11 67
37 120 42 85 43 82 -43 141 -48 34 -66 40 -121 43 -53 4 -74 0 -115 -19 l-50
-23 -129 33 -129 34 -63 -60 c-60 -57 -119 -103 -131 -103 -3 0 -6 17 -6 37 0
28 8 45 32 70 l32 33 -31 33 c-17 17 -37 52 -44 75 -9 30 -20 47 -36 53 -13 5
-23 13 -23 19 0 6 17 51 38 100 28 68 41 88 52 84 39 -16 112 -16 155 1 47 17
106 79 120 124 7 22 10 23 59 17 36 -5 60 -15 81 -35 42 -40 109 -63 171 -60
44 2 57 -2 84 -24 46 -39 164 -106 218 -124 26 -9 54 -22 63 -29 8 -8 20 -14
26 -14 6 0 57 39 112 86 110 93 179 182 232 300 35 78 36 95 8 120 -22 20 -59
85 -59 104 0 6 -9 21 -20 32 -28 30 -49 11 -32 -27 15 -33 15 -35 -1 -35 -7 0
-28 -13 -47 -30 -19 -16 -39 -29 -44 -30 -5 0 -24 11 -42 25 -29 22 -32 28
-22 45 7 10 9 23 5 27 -12 11 -42 -11 -45 -34 -4 -26 74 -93 108 -93 12 0 40
16 61 35 47 42 64 44 83 7 8 -15 23 -35 34 -45 l20 -19 -28 -63 c-50 -112
-124 -209 -221 -293 -50 -42 -96 -79 -101 -81 -5 -1 -17 4 -26 12 -9 8 -35 20
-57 27 -50 16 -169 84 -213 122 -30 25 -41 28 -95 27 -69 -1 -127 19 -169 58
-25 24 -82 42 -135 43 -17 0 -24 -8 -29 -27 -9 -37 -59 -100 -93 -117 -36 -19
-99 -22 -144 -7 -22 7 -42 9 -47 5 -10 -11 -90 -199 -90 -212 0 -4 13 -21 29
-36 16 -16 32 -40 36 -55 3 -14 20 -40 36 -57 l29 -30 -30 -29 c-24 -23 -30
-37 -30 -71 0 -102 31 -100 145 8 l87 82 103 -27 c123 -32 173 -34 225 -7 67
34 128 23 213 -38 26 -19 47 -35 47 -37 0 -2 -16 -36 -35 -76 -22 -47 -35 -88
-35 -114 0 -36 -6 -46 -67 -106 -83 -81 -112 -118 -146 -186 -35 -68 -69 -91
-125 -83 -25 4 -53 17 -70 32 -15 15 -39 30 -54 33 -23 6 -28 3 -34 -19 -5
-20 -12 -26 -33 -26 -47 0 -71 -25 -71 -75 0 -24 5 -47 10 -50 22 -13 7 -24
-47 -35 -32 -6 -66 -14 -75 -16 -27 -8 -118 -140 -118 -170 0 -33 -25 -53 -66
-54 -32 0 -64 -26 -64 -51 0 -21 72 -89 94 -89 24 0 104 -48 116 -70 6 -10 10
-30 10 -45 0 -27 1 -28 68 -45 40 -10 42 -13 42 -46 0 -45 54 -104 95 -104 21
0 29 -8 42 -37 8 -21 18 -55 21 -76 4 -36 4 -37 -27 -37 -42 0 -41 -28 1 -81
28 -35 31 -46 29 -91 -1 -29 -9 -61 -17 -72 -23 -33 -17 -122 16 -230 16 -54
39 -113 50 -131 11 -18 20 -46 20 -62 0 -39 32 -130 64 -186 14 -24 26 -57 26
-73 0 -16 8 -50 17 -76 15 -42 15 -54 4 -100 -7 -29 -23 -73 -35 -98 -12 -25
-31 -82 -41 -126 l-18 -82 95 -96 c52 -53 98 -96 102 -96 3 0 25 18 49 39 56
52 83 54 141 13 53 -38 54 -43 22 -157 l-22 -79 -95 3 c-90 2 -95 1 -118 -23
-14 -14 -31 -26 -39 -26 -7 0 -54 -34 -103 -76 -73 -62 -89 -80 -89 -103 0
-16 -10 -40 -21 -55 -17 -22 -27 -26 -49 -21 -22 5 -31 2 -39 -13 -6 -11 -48
-58 -93 -104 -97 -99 -138 -150 -138 -170 0 -21 50 -66 88 -79 35 -12 39 -24
17 -53 -8 -11 -15 -36 -15 -56 0 -53 -17 -65 -52 -35 -50 42 -80 34 -132 -34
l-46 -59 0 -89 c1 -48 7 -124 15 -168 8 -44 15 -83 15 -87 0 -13 -96 -9 -201
8 -55 8 -107 14 -116 12 -9 -2 -23 -23 -33 -52 -9 -27 -24 -53 -33 -58 -9 -4
-25 -12 -34 -17 -11 -5 -19 -22 -21 -44 -3 -30 5 -48 42 -100 38 -53 46 -73
52 -127 6 -59 11 -69 48 -103 23 -22 73 -70 111 -108 42 -42 78 -69 91 -69 13
0 48 -28 92 -74 57 -58 72 -80 72 -104 0 -24 12 -40 65 -87 36 -31 65 -63 65
-70 0 -8 14 -30 31 -50 l31 -35 -33 -48 c-19 -27 -68 -96 -109 -155 -41 -59
-80 -107 -86 -107 -23 0 -52 48 -63 105 -8 44 -19 68 -41 90 -29 28 -34 30
-134 33 -90 4 -115 1 -197 -23 -79 -23 -111 -27 -199 -26 -125 2 -252 -19
-282 -45 -11 -10 -36 -53 -55 -94 -30 -65 -120 -220 -128 -220 -17 0 -84 37
-97 53 -14 19 -19 20 -44 8 -24 -11 -31 -10 -55 8 -16 12 -40 21 -54 21 -14 0
-34 9 -46 21 -17 17 -31 20 -100 18 -75 -2 -83 0 -107 24 -20 21 -27 40 -33
91 -9 93 -53 143 -174 200 -49 24 -139 73 -199 110 -59 37 -114 65 -122 62 -9
-4 -23 12 -40 46 -15 29 -71 119 -125 200 -55 81 -99 155 -99 164 0 22 -66
139 -116 205 -23 30 -58 97 -78 148 -31 81 -36 104 -36 180 0 59 7 110 22 161
12 41 22 76 23 77 1 2 30 -7 66 -18 49 -17 77 -34 119 -75 31 -30 63 -54 71
-54 9 0 44 29 77 64 82 85 82 104 7 186 -30 33 -55 64 -55 70 0 5 28 32 63 59
72 58 95 62 163 26 46 -25 108 -33 118 -16 3 4 33 14 67 21 48 10 73 23 119
62 32 26 67 48 77 48 25 0 60 -37 68 -73 7 -26 72 -87 93 -87 12 0 22 24 22
53 0 12 14 36 32 54 29 30 31 34 18 58 -13 24 -11 30 27 83 22 31 44 68 48 82
12 40 35 60 71 60 26 0 39 7 59 35 27 34 27 34 87 28 52 -5 67 -3 104 18 l43
23 23 -20 c13 -11 35 -28 51 -37 37 -23 34 -49 -9 -82 -53 -40 -44 -64 31 -84
57 -15 60 -18 75 -61 21 -60 42 -62 96 -9 51 50 55 76 19 123 -31 41 -31 47 1
85 38 46 27 98 -36 165 -26 28 -52 67 -59 87 -16 49 8 114 99 264 87 143 123
237 140 366 l13 96 -51 95 c-57 105 -61 132 -33 213 17 49 34 65 107 106 16 8
42 35 59 58 26 38 30 53 32 125 1 44 9 114 18 154 8 40 15 83 15 96 0 21 -66
96 -84 96 -5 0 -39 24 -75 54 -83 66 -179 116 -225 116 -27 0 -39 -6 -53 -26
-38 -56 -127 -144 -145 -144 -10 0 -40 20 -66 44 -61 56 -81 66 -137 66 -39 0
-48 4 -52 21 -4 13 -11 18 -21 14 -8 -3 -28 0 -43 7 -32 14 -31 37 2 73 10 12
24 36 30 55 7 19 27 56 45 81 18 25 54 90 79 145 25 54 54 108 64 119 10 11
22 31 26 44 4 14 28 56 52 95 25 38 50 84 56 101 6 16 47 89 91 161 45 72 153
269 241 437 116 222 165 307 177 307 10 0 27 18 40 43 22 40 23 52 23 277 l1
235 29 60 c24 48 51 78 139 155 60 52 246 228 414 390 l304 295 221 128 c121
70 221 126 222 125 2 -2 14 -26 28 -53 17 -34 31 -88 41 -165 30 -209 41 -247
93 -307 26 -30 60 -61 77 -70 17 -9 35 -22 39 -29 11 -20 27 -17 27 4 0 20
-29 52 -47 52 -11 0 -84 77 -109 115 -7 11 -24 94 -39 185 -24 153 -55 272
-76 294 -5 6 -9 13 -9 17 0 15 207 186 239 197 19 7 55 12 81 12 62 0 72 13
80 107 7 86 27 113 85 113 48 0 93 42 128 120 16 36 41 78 55 93 l27 29 -81
76 c-69 66 -91 80 -152 101 -39 13 -79 33 -89 43 -13 15 -29 18 -74 17 -62 -2
-89 10 -89 42 0 10 32 56 71 101 82 94 135 195 145 274 6 52 5 56 -30 98 -19
24 -48 47 -63 50 -48 12 -100 53 -156 124 -43 53 -64 71 -96 80 -30 9 -45 22
-57 45 -9 18 -28 44 -42 60 -46 48 -102 27 -102 -39 0 -27 -10 -45 -45 -83
l-45 -48 0 -77 c0 -63 4 -83 24 -114 13 -21 36 -81 52 -133 15 -52 34 -102 42
-111 10 -12 14 -54 17 -155 5 -261 7 -241 -29 -289 -19 -24 -37 -61 -41 -81
-4 -21 -18 -53 -32 -71 -23 -31 -24 -38 -18 -104 7 -64 12 -77 56 -138 52 -71
59 -102 32 -132 -16 -17 -15 -20 14 -51 28 -29 53 -89 53 -127 0 -21 -156
-117 -354 -218 -59 -31 -114 -81 -392 -355 l-324 -319 -31 11 c-18 6 -46 11
-64 11 -38 0 -82 32 -97 69 -12 32 -11 298 3 322 5 10 36 39 69 64 57 44 60
48 60 90 0 58 -41 107 -104 125 -54 15 -78 4 -105 -48 -35 -69 -97 -112 -160
-112 -28 0 -52 -22 -133 -123 -26 -32 -29 -33 -87 -29 -40 3 -61 1 -61 -6 0
-6 -21 -34 -46 -63 -25 -28 -50 -62 -55 -76 -15 -39 -10 -146 8 -204 l17 -52
-64 -59 c-36 -33 -77 -66 -92 -74 -16 -8 -28 -23 -28 -34 0 -26 110 -151 181
-206 61 -46 67 -64 23 -64 -44 0 -88 -26 -149 -89 -33 -34 -68 -61 -78 -61
-10 0 -45 14 -78 31 -50 26 -72 32 -134 33 -72 1 -75 0 -112 -36 -26 -25 -63
-46 -115 -64 l-78 -28 -56 18 c-42 13 -83 17 -164 15 -91 -2 -115 1 -144 16
-30 16 -38 17 -63 5 -15 -7 -48 -12 -73 -11 -40 2 -50 7 -85 48 l-41 46 -123
-9 c-109 -8 -129 -7 -163 8 -21 9 -53 20 -71 23 -28 5 -37 1 -73 -37 -49 -52
-123 -170 -131 -209 -3 -16 -8 -29 -12 -29 -4 0 -38 19 -76 43 -52 32 -87 64
-132 123 -35 43 -80 99 -101 124 l-39 44 -67 -13 -66 -13 -63 37 c-73 45 -113
51 -230 36 -79 -9 -92 -14 -133 -48 -57 -48 -77 -78 -84 -128 -4 -33 -11 -43
-44 -61 -36 -21 -42 -21 -67 -8 -39 20 -52 18 -79 -11 -26 -28 -61 -32 -122
-14 -35 9 -38 13 -38 44 0 52 -61 109 -131 124 -45 10 -65 22 -125 79 -39 37
-81 74 -93 82 -13 8 -26 31 -30 50 -7 30 -2 46 37 120 24 47 52 91 60 98 9 6
39 12 67 12 45 0 55 4 82 33 17 17 38 53 48 79 18 50 64 98 145 154 37 24 49
41 66 90 16 43 26 58 38 56 20 -4 20 2 2 31 -19 29 -35 138 -24 166 4 12 28
49 53 81 51 67 65 117 65 240 0 109 21 163 90 235 51 53 60 68 75 131 14 59
23 78 57 110 44 43 68 83 68 112 0 11 14 36 30 57 37 46 41 115 10 155 -23 30
-26 69 -5 96 22 29 19 39 -30 94 -50 56 -52 66 -29 134 38 110 -40 199 -258
297 -81 37 -117 48 -128 42 -15 -10 -19 -16 -64 -117 l-27 -59 -27 24 c-15 13
-41 36 -57 51 -17 15 -50 34 -73 42 -24 9 -65 35 -92 59 -27 25 -77 55 -118
71 -95 38 -133 79 -167 181 -23 66 -36 87 -74 122 -25 24 -54 43 -63 43 -9 0
-20 5 -23 10 -9 14 -21 12 -35 -5z m98 -62 c37 -28 52 -55 77 -135 24 -76 95
-146 185 -183 35 -15 85 -46 111 -69 26 -23 64 -48 85 -54 22 -7 66 -36 98
-65 l60 -54 -68 -149 c-37 -82 -73 -165 -78 -184 -18 -60 -74 -97 -231 -156
-163 -60 -463 -126 -476 -105 -4 6 -19 64 -34 129 -22 96 -35 129 -70 181 -78
119 -73 105 -51 134 11 13 29 53 39 87 17 56 17 64 3 88 -9 15 -36 37 -61 49
-24 12 -63 44 -86 71 -33 40 -41 58 -41 90 0 23 8 49 19 63 10 13 30 47 45 76
25 51 27 52 106 78 100 31 127 45 164 84 16 17 45 34 63 37 18 3 36 10 38 15
9 14 68 -2 103 -28z m5737 -102 c25 -45 37 -57 73 -69 32 -10 53 -27 84 -69
49 -64 116 -119 158 -128 17 -4 44 -23 61 -43 28 -34 30 -41 25 -90 -9 -74
-57 -163 -137 -255 -60 -68 -69 -83 -69 -117 0 -52 29 -73 99 -69 35 2 56 -2
68 -13 10 -9 53 -29 95 -45 63 -23 89 -40 143 -92 l66 -64 -25 -26 c-14 -14
-34 -48 -46 -76 -30 -70 -66 -105 -107 -105 -24 0 -44 -10 -70 -34 -34 -31
-37 -38 -41 -102 -2 -38 -9 -75 -14 -81 -6 -8 -33 -13 -64 -13 -29 0 -64 -4
-77 -9 -13 -5 -68 -48 -122 -95 -53 -47 -101 -84 -105 -81 -4 3 -11 22 -15 42
-4 22 -20 52 -37 70 -29 30 -30 32 -14 54 26 37 19 64 -34 137 -38 52 -50 77
-50 105 0 20 -4 39 -10 42 -17 11 -11 35 19 78 16 23 33 58 36 77 4 19 22 53
39 75 29 37 31 44 30 120 -1 44 -2 133 -2 198 -1 90 -4 123 -15 135 -8 10 -29
63 -45 118 -17 56 -42 120 -56 143 -21 32 -26 53 -26 101 0 58 2 62 50 115 40
44 50 62 50 91 0 33 2 35 27 32 21 -2 34 -15 58 -57z m-4893 -327 c131 -59
234 -139 244 -189 3 -19 1 -49 -5 -66 -6 -18 -11 -52 -11 -76 0 -37 6 -50 41
-88 34 -37 39 -47 30 -64 -17 -31 -13 -103 7 -129 15 -19 17 -34 12 -68 -11
-72 -21 -73 -87 -17 -32 28 -67 53 -78 57 -51 16 -103 90 -185 266 -60 130
-91 185 -120 212 l-39 38 29 62 c17 35 30 70 30 79 0 17 9 29 22 29 4 0 54
-21 110 -46z m-3592 -774 c0 -5 -4 -10 -10 -10 -5 0 -10 5 -10 10 0 6 5 10 10
10 6 0 10 -4 10 -10z m3841 -67 c-10 -17 -10 -16 -11 3 0 23 13 41 18 25 2 -6
-1 -18 -7 -28z m-3686 -170 c33 -59 82 -130 108 -159 l48 -53 -33 -6 c-160
-28 -237 -17 -308 44 l-44 38 38 69 c21 38 55 87 77 109 21 23 39 46 39 53 0
29 19 5 75 -95z m7080 -587 c38 -16 53 -39 57 -86 2 -27 -4 -37 -32 -59 -19
-14 -50 -40 -67 -57 -32 -31 -33 -35 -33 -108 0 -59 -3 -77 -16 -84 -26 -15
-54 -3 -54 23 0 35 -37 75 -69 75 -32 0 -74 -40 -88 -85 -7 -22 -17 -31 -37
-33 -36 -4 -76 22 -76 51 0 12 -4 29 -9 37 -10 14 -3 25 93 135 29 34 46 45
68 45 63 0 126 47 170 129 19 35 40 39 93 17z m-453 -329 c4 -7 8 -23 8 -35 0
-32 55 -82 90 -82 36 0 77 33 85 70 6 27 37 60 57 60 15 0 38 -33 38 -55 0
-32 25 -55 62 -55 29 0 30 -1 23 -41 -16 -92 53 -199 128 -199 18 0 42 -7 53
-14 18 -14 14 -20 -78 -113 -129 -130 -141 -159 -158 -383 -8 -106 -21 -195
-36 -248 -12 -46 -25 -86 -27 -88 -26 -27 -220 198 -282 328 -63 130 -78 149
-146 183 -42 22 -149 125 -149 145 0 4 34 34 76 66 106 81 109 91 72 199 -22
63 -22 64 -4 122 12 39 33 75 65 110 42 47 49 51 81 46 19 -2 38 -10 42 -16z
m-57 -873 c46 -101 235 -334 272 -334 6 0 15 -4 18 -10 5 -8 -193 -381 -213
-402 -12 -12 -113 8 -123 23 -13 20 -12 24 16 57 32 38 32 74 -1 131 -43 75
-73 101 -113 101 -30 0 -42 7 -72 41 -34 40 -38 42 -110 49 -57 5 -85 13 -121
35 -64 40 -66 74 -8 140 22 26 40 57 40 70 0 22 2 23 58 18 l57 -5 53 55 c65
69 90 87 122 87 14 0 36 6 50 14 14 7 29 11 33 8 5 -2 24 -37 42 -78z m365
-283 c-37 -74 -38 -49 -2 69 l17 55 3 -42 c2 -27 -4 -56 -18 -82z m-3482
-1131 c60 0 62 -1 62 -26 0 -16 -16 -45 -40 -74 -42 -50 -51 -89 -25 -110 11
-9 14 -22 9 -47 -6 -32 -3 -38 50 -86 47 -44 56 -58 56 -87 0 -29 -7 -41 -42
-71 -40 -34 -41 -38 -30 -63 7 -15 12 -56 12 -92 0 -51 7 -83 32 -142 18 -42
31 -88 30 -100 -3 -38 -37 -77 -143 -163 -109 -88 -106 -82 -90 -195 4 -33 3
-60 -6 -80 -6 -16 -12 -40 -13 -53 0 -14 -10 -35 -21 -47 -19 -20 -20 -29 -14
-71 11 -65 10 -70 -41 -119 -38 -38 -44 -49 -44 -86 0 -46 -40 -198 -53 -198
-4 0 -40 16 -80 36 -49 24 -96 59 -147 110 -108 106 -177 125 -296 83 -38 -14
-97 -24 -169 -29 -96 -6 -121 -11 -193 -43 l-83 -36 -9 25 c-6 14 -10 78 -10
142 0 68 -6 139 -14 169 -16 62 -11 90 34 188 23 49 34 91 38 140 8 110 54
206 157 326 139 164 202 264 237 382 16 56 38 111 48 122 10 11 31 51 46 88
22 54 33 69 53 74 14 3 40 18 56 32 70 64 77 65 238 62 112 -2 152 1 164 11
30 24 78 37 128 32 28 -2 78 -4 113 -4z m3195 -581 c34 -17 91 -54 126 -82 35
-28 77 -58 94 -66 17 -9 39 -27 48 -41 17 -24 17 -29 -2 -120 -10 -52 -19
-117 -18 -145 1 -27 -2 -61 -6 -75 -12 -40 -53 -89 -93 -109 -78 -40 -112
-102 -112 -200 0 -48 7 -69 49 -144 l48 -88 -14 -92 c-19 -129 -44 -192 -135
-344 -44 -73 -86 -154 -95 -180 -15 -43 -17 -45 -30 -27 -10 13 -13 35 -10 66
3 40 12 56 51 97 52 56 50 51 35 101 -10 32 -8 42 11 80 29 56 21 101 -24 135
-18 14 -45 25 -59 25 -17 0 -28 7 -32 20 -3 11 -11 20 -16 20 -5 0 -9 -9 -9
-20 0 -26 -8 -25 -39 4 -28 25 -127 56 -179 56 -31 0 -139 -35 -156 -51 -5 -4
-3 -49 4 -106 13 -94 15 -99 52 -134 28 -25 43 -50 53 -88 15 -58 73 -137 112
-152 13 -5 47 -9 76 -9 38 0 56 -5 74 -22 13 -12 23 -26 23 -31 0 -5 14 -25
30 -44 17 -18 30 -39 30 -46 0 -7 22 -35 50 -62 39 -39 51 -57 56 -92 5 -37 3
-48 -15 -67 -26 -28 -27 -70 -1 -103 28 -35 25 -64 -8 -96 -33 -32 -52 -35
-52 -8 0 34 -47 79 -90 86 -22 4 -42 10 -45 15 -3 4 11 20 30 34 44 34 46 67
8 101 -16 14 -38 34 -51 45 -27 24 -74 26 -105 5 -26 -17 -66 -20 -123 -10
-39 7 -43 5 -69 -29 -22 -28 -34 -36 -60 -36 -25 0 -40 -8 -59 -31 -14 -17
-26 -37 -26 -45 0 -9 -21 -45 -47 -81 -41 -58 -45 -68 -36 -92 9 -24 6 -32
-19 -59 -15 -18 -28 -41 -28 -52 0 -11 -4 -20 -9 -20 -13 0 -51 49 -51 66 0 7
-12 26 -26 43 -21 25 -33 31 -66 31 -33 0 -49 -8 -91 -44 -39 -32 -67 -47
-110 -57 -32 -7 -60 -16 -63 -21 -11 -17 -79 -7 -122 18 -61 36 -96 29 -177
-36 -85 -68 -86 -87 -10 -170 30 -33 55 -65 55 -71 0 -14 -110 -129 -124 -129
-6 0 -35 24 -66 54 -43 42 -69 58 -122 76 -65 21 -68 23 -69 53 0 18 -4 75 -8
127 -6 83 -4 105 17 179 13 46 48 133 78 192 51 102 54 113 54 181 0 56 -12
116 -48 252 l-49 179 17 81 c9 45 21 90 27 101 29 52 125 123 348 256 293 175
336 212 407 354 28 55 58 109 68 120 10 11 21 31 25 45 4 14 42 84 85 155 43
72 96 170 119 218 22 49 54 106 72 128 l31 40 36 -21 c19 -12 63 -25 98 -29
57 -7 68 -12 113 -54 42 -39 57 -47 89 -47 35 0 45 6 93 59 30 32 62 70 72 85
23 33 34 33 110 -5z m-330 -1171 c66 -18 83 -27 96 -50 19 -34 54 -45 86 -28
20 11 28 10 49 -4 35 -23 42 -59 21 -106 -13 -29 -16 -52 -11 -86 6 -44 4 -48
-39 -96 -35 -39 -45 -58 -45 -85 0 -30 -3 -34 -17 -28 -10 4 -43 10 -73 12
-30 2 -64 6 -76 8 -30 6 -82 85 -96 145 -9 40 -20 58 -48 80 -33 26 -38 37
-48 99 -19 114 -20 113 46 138 72 27 61 27 155 1z m-2296 -943 c31 -39 43 -64
51 -112 10 -58 18 -72 110 -185 54 -68 105 -128 113 -135 8 -6 59 -14 114 -16
55 -3 143 -15 195 -27 l95 -22 2 -72 c3 -147 20 -362 31 -394 14 -43 79 -159
109 -195 12 -16 23 -33 23 -38 0 -5 17 -35 37 -65 l37 -56 -29 -24 c-17 -13
-35 -24 -40 -24 -6 0 -33 23 -60 51 -51 52 -118 89 -161 89 -31 0 -59 -14
-102 -51 -40 -36 -63 -36 -119 -3 -43 25 -49 25 -140 19 l-96 -8 -63 -56 c-97
-88 -133 -111 -172 -111 -28 0 -44 -9 -78 -44 l-44 -43 0 -105 c0 -73 -5 -117
-16 -143 -11 -27 -13 -54 -9 -103 l6 -67 -90 -90 c-75 -76 -96 -91 -131 -97
-30 -5 -58 -22 -104 -63 -35 -30 -72 -55 -82 -55 -11 0 -50 33 -94 80 -64 69
-81 82 -115 87 -30 5 -55 20 -103 65 l-63 58 -64 0 c-54 0 -77 -6 -140 -37
l-74 -37 -25 23 c-14 13 -28 40 -31 64 -6 35 -23 56 -113 145 -97 97 -106 103
-129 93 -13 -6 -29 -25 -35 -41 -13 -38 -23 -38 -44 2 -9 18 -36 50 -60 70
-33 30 -45 49 -54 90 -7 29 -23 65 -36 80 -12 15 -28 44 -34 64 -9 27 -31 50
-93 95 l-81 59 1 73 c2 93 11 114 70 171 55 52 35 47 347 90 l239 33 45 47 44
47 -7 67 c-4 37 -7 69 -8 72 -4 23 19 92 36 108 12 10 57 31 99 45 57 19 95
40 146 81 38 31 79 56 90 56 12 0 43 -20 70 -44 66 -58 88 -62 190 -34 74 20
89 28 128 71 25 26 51 47 59 47 24 0 73 49 80 80 4 19 28 48 66 82 40 34 73
76 100 125 36 65 47 77 97 102 32 16 60 26 63 23 3 -4 23 -29 46 -57z m743
-445 c0 -53 -2 -58 -20 -53 -23 6 -24 17 -8 77 16 59 28 49 28 -24z m-3 -88
c10 -6 9 -21 -4 -67 l-17 -59 -13 29 c-13 33 -17 88 -6 98 8 9 25 9 40 -1z
m2915 -1389 l37 -36 41 18 41 18 38 -37 c25 -24 42 -51 46 -74 5 -28 27 -56
100 -127 58 -56 96 -102 101 -120 9 -32 9 -32 0 -87 l-7 -37 -71 41 c-103 58
-203 91 -253 83 -147 -22 -175 -17 -273 52 -41 30 -59 49 -55 57 38 63 200
286 208 286 5 0 26 -17 47 -37z"/>
</g>
</svg>
